<svg width="294" height="319" viewBox="0 0 294 319" fill="none" xmlns="http://www.w3.org/2000/svg">
<g clip-path="url(#clip0_1_2)">
<path d="M0 22.8484C0 10.2279 9.66525 0 21.5906 0H272.409C284.335 0 294 10.2279 294 22.8484V296.152C294 308.772 284.335 319 272.409 319H21.5906C9.66525 319 0 308.772 0 296.152V22.8484ZM90.8276 267.043V122.994H46.7093V267.043H90.8276ZM68.7776 103.316C84.1575 103.316 93.7309 92.2708 93.7309 78.4341C93.4552 64.2984 84.1759 53.5521 69.0716 53.5521C53.9674 53.5521 44.1 64.3184 44.1 78.4341C44.1 92.2708 53.6734 103.316 68.4836 103.316H68.7776ZM158.962 267.043V186.595C158.962 182.289 159.256 177.982 160.432 174.912C163.611 166.319 170.869 157.407 183.07 157.407C199.038 157.407 205.414 170.605 205.414 189.984V267.043H249.532V184.422C249.532 140.161 227.777 119.585 198.744 119.585C175.334 119.585 164.842 133.541 158.962 143.371V143.869H158.668L158.962 143.371V122.994H114.862C115.413 136.512 114.862 267.043 114.862 267.043H158.962Z" fill="#8C52FF"/>
</g>
<defs>
<clipPath id="clip0_1_2">
<rect width="294" height="319" fill="white"/>
</clipPath>
</defs>
</svg>
