<svg width="172" height="142" viewBox="0 0 172 142" fill="none" xmlns="http://www.w3.org/2000/svg">
<path fill-rule="evenodd" clip-rule="evenodd" d="M0.0625 133.5C0.0625 131.428 0.885602 129.441 2.35073 127.976C3.81586 126.511 5.803 125.688 7.875 125.688H164.125C166.197 125.688 168.184 126.511 169.649 127.976C171.114 129.441 171.938 131.428 171.938 133.5C171.938 135.572 171.114 137.559 169.649 139.024C168.184 140.489 166.197 141.312 164.125 141.312H7.875C5.803 141.312 3.81586 140.489 2.35073 139.024C0.885602 137.559 0.0625 135.572 0.0625 133.5ZM0.0625 71C0.0625 68.928 0.885602 66.9409 2.35073 65.4757C3.81586 64.0106 5.803 63.1875 7.875 63.1875H164.125C166.197 63.1875 168.184 64.0106 169.649 65.4757C171.114 66.9409 171.938 68.928 171.938 71C171.938 73.072 171.114 75.0591 169.649 76.5243C168.184 77.9894 166.197 78.8125 164.125 78.8125H7.875C5.803 78.8125 3.81586 77.9894 2.35073 76.5243C0.885602 75.0591 0.0625 73.072 0.0625 71ZM0.0625 8.5C0.0625 6.428 0.885602 4.44086 2.35073 2.97573C3.81586 1.5106 5.803 0.6875 7.875 0.6875H164.125C166.197 0.6875 168.184 1.5106 169.649 2.97573C171.114 4.44086 171.938 6.428 171.938 8.5C171.938 10.572 171.114 12.5591 169.649 14.0243C168.184 15.4894 166.197 16.3125 164.125 16.3125H7.875C5.803 16.3125 3.81586 15.4894 2.35073 14.0243C0.885602 12.5591 0.0625 10.572 0.0625 8.5Z" fill="#8C52FF"/>
</svg>
