<svg width="250" height="250" viewBox="0 0 250 250" fill="none" xmlns="http://www.w3.org/2000/svg">
<path d="M99.9965 4.33991C101.619 6.1952 102.613 8.46297 102.851 10.8519C103.088 13.2408 102.559 15.6418 101.33 17.7464C91.6891 34.3302 86.6568 52.9227 86.697 71.8097C86.697 134.639 141.328 185.515 208.659 185.515C217.459 185.504 225.975 184.671 234.208 183.014C236.727 182.509 239.348 182.708 241.748 183.585C244.147 184.463 246.22 185.981 247.708 187.952C249.283 190.003 250.086 192.486 249.993 195.011C249.899 197.537 248.914 199.962 247.191 201.905C234.119 216.958 217.629 229.087 198.923 237.407C180.217 245.727 159.766 250.03 139.062 250C62.2311 250 0 191.968 0 120.467C0 66.6533 35.2321 20.4964 85.397 0.933612C87.895 -0.0617149 90.6707 -0.267675 93.3046 0.346855C95.9385 0.961386 98.2874 2.36301 99.9965 4.33991Z" fill="#8C52FF"/>
</svg>
