<svg width="251" height="250" viewBox="0 0 251 250" fill="none" xmlns="http://www.w3.org/2000/svg">
<path d="M208.833 125C208.833 147.101 200.054 168.298 184.426 183.926C168.798 199.554 147.601 208.333 125.5 208.333C103.399 208.333 82.2025 199.554 66.5744 183.926C50.9464 168.298 42.1667 147.101 42.1667 125C42.1667 102.899 50.9464 81.7025 66.5744 66.0744C82.2025 50.4464 103.399 41.6667 125.5 41.6667C147.601 41.6667 168.798 50.4464 184.426 66.0744C200.054 81.7025 208.833 102.899 208.833 125ZM135.917 10.4167C135.917 13.1793 134.819 15.8289 132.866 17.7824C130.912 19.7359 128.263 20.8333 125.5 20.8333C122.737 20.8333 120.088 19.7359 118.134 17.7824C116.181 15.8289 115.083 13.1793 115.083 10.4167C115.083 7.654 116.181 5.00448 118.134 3.05097C120.088 1.09747 122.737 0 125.5 0C128.263 0 130.912 1.09747 132.866 3.05097C134.819 5.00448 135.917 7.654 135.917 10.4167ZM135.917 239.583C135.917 242.346 134.819 244.996 132.866 246.949C130.912 248.903 128.263 250 125.5 250C122.737 250 120.088 248.903 118.134 246.949C116.181 244.996 115.083 242.346 115.083 239.583C115.083 236.821 116.181 234.171 118.134 232.218C120.088 230.264 122.737 229.167 125.5 229.167C128.263 229.167 130.912 230.264 132.866 232.218C134.819 234.171 135.917 236.821 135.917 239.583ZM240.083 135.417C237.321 135.417 234.671 134.319 232.718 132.366C230.764 130.412 229.667 127.763 229.667 125C229.667 122.237 230.764 119.588 232.718 117.634C234.671 115.681 237.321 114.583 240.083 114.583C242.846 114.583 245.496 115.681 247.449 117.634C249.403 119.588 250.5 122.237 250.5 125C250.5 127.763 249.403 130.412 247.449 132.366C245.496 134.319 242.846 135.417 240.083 135.417ZM10.9167 135.417C8.154 135.417 5.50448 134.319 3.55097 132.366C1.59747 130.412 0.5 127.763 0.5 125C0.5 122.237 1.59747 119.588 3.55097 117.634C5.50448 115.681 8.154 114.583 10.9167 114.583C13.6793 114.583 16.3289 115.681 18.2824 117.634C20.2359 119.588 21.3333 122.237 21.3333 125C21.3333 127.763 20.2359 130.412 18.2824 132.366C16.3289 134.319 13.6793 135.417 10.9167 135.417ZM213.896 51.3333C212.935 52.3282 211.786 53.1218 210.515 53.6677C209.244 54.2137 207.877 54.501 206.494 54.513C205.111 54.525 203.739 54.2615 202.459 53.7377C201.179 53.214 200.016 52.4405 199.038 51.4625C198.06 50.4844 197.286 49.3214 196.762 48.0412C196.239 46.761 195.975 45.3894 195.987 44.0062C195.999 42.6231 196.286 41.2562 196.832 39.9854C197.378 38.7145 198.172 37.5651 199.167 36.6042C201.131 34.7067 203.763 33.6567 206.494 33.6805C209.225 33.7042 211.965 34.6728 213.896 36.6042C215.827 38.5355 216.796 41.275 216.82 44.0062C216.843 46.7375 215.793 49.3687 213.896 51.3333ZM51.8333 213.396C50.8724 214.391 49.723 215.184 48.4521 215.73C47.1813 216.276 45.8144 216.564 44.4313 216.576C43.0481 216.588 41.6765 216.324 40.3963 215.8C39.1161 215.276 37.9531 214.503 36.9751 213.525C35.997 212.547 35.2235 211.384 34.6998 210.104C34.176 208.824 33.9125 207.452 33.9245 206.069C33.9365 204.686 34.2238 203.319 34.7698 202.048C35.3157 200.777 36.1093 199.628 37.1042 198.667C39.0688 196.769 41.7001 195.719 44.4313 195.743C47.1625 195.767 49.7751 196.862 51.7064 198.794C53.6378 200.725 54.7333 203.338 54.757 206.069C54.7808 208.8 53.7308 211.431 51.8333 213.396ZM199.167 213.396C198.172 212.435 197.378 211.286 196.832 210.015C196.286 208.744 195.999 207.377 195.987 205.994C195.975 204.611 196.239 203.239 196.762 201.959C197.286 200.679 198.06 199.516 199.038 198.538C200.016 197.56 201.179 196.786 202.459 196.262C203.739 195.739 205.111 195.475 206.494 195.487C207.877 195.499 209.244 195.786 210.515 196.332C211.786 196.878 212.935 197.672 213.896 198.667C215.793 200.631 216.843 203.263 216.82 205.994C216.796 208.725 215.7 211.338 213.769 213.269C211.838 215.2 209.225 216.296 206.494 216.32C203.763 216.343 201.131 215.293 199.167 213.396ZM37.1042 51.3333C36.1093 50.3724 35.3157 49.223 34.7698 47.9521C34.2238 46.6813 33.9365 45.3144 33.9245 43.9313C33.9125 42.5481 34.176 41.1765 34.6998 39.8963C35.2235 38.6161 35.997 37.4531 36.9751 36.4751C37.9531 35.497 39.1161 34.7235 40.3963 34.1998C41.6765 33.676 43.0481 33.4125 44.4313 33.4245C45.8144 33.4365 47.1813 33.7238 48.4521 34.2698C49.723 34.8157 50.8724 35.6093 51.8333 36.6042C53.7308 38.5688 54.7808 41.2001 54.757 43.9313C54.7333 46.6625 53.6378 49.2751 51.7064 51.2064C49.7751 53.1378 47.1625 54.2333 44.4313 54.257C41.7001 54.2808 39.0688 53.2308 37.1042 51.3333Z" fill="#8C52FF"/>
</svg>
